<svg class="svg-icon" style="width: 1em; height: 1em;vertical-align: middle;fill: white;overflow: hidden;" viewBox="0 0 1024 1024" version="1.1" xmlns="http://www.w3.org/2000/svg"><path d="M873.8 729.6c-29.4-29.4-100-73.6-134.8-90.2-40.4-19.4-55.2-19-83.8 1.6-23.8 17.2-39.2 33.2-66.6 27.2-27.4-5.8-81.4-46.8-133.8-99-52.4-52.4-93.2-106.4-99-133.8-5.8-27.6 10.2-42.8 27.2-66.6 20.6-28.6 21.2-43.4 1.6-83.8C368 250 324 179.6 294.4 150.2c-29.4-29.4-36-23-52.2-17.2 0 0-24 9.6-47.8 25.4-29.4 19.6-45.8 36-57.4 60.6-11.4 24.6-24.6 70.4 42.6 190 54.2 96.6 107.4 169.8 186.4 248.6l0.2 0.2 0.2 0.2c79 79 152 132.2 248.6 186.4 119.6 67.2 165.4 54 190 42.6 24.6-11.4 41-27.8 60.6-57.4 15.8-23.8 25.4-47.8 25.4-47.8 5.8-16.2 12.4-22.8-17.2-52.2z"  /></svg>