<svg width="429" height="281" viewBox="0 0 429 281" fill="none" xmlns="http://www.w3.org/2000/svg">
<mask id="mask0_901_1350" style="mask-type:alpha" maskUnits="userSpaceOnUse" x="0" y="0" width="429" height="281">
<rect width="429" height="281" fill="#D9D9D9"/>
</mask>
<g mask="url(#mask0_901_1350)">
</g>
<g clip-path="url(#clip0_901_1350)">
<path d="M118.799 139.349C121.914 125.708 132.043 113.815 145.703 110.024C148.36 109.09 151.101 108.352 153.955 107.868C159.71 106.653 165.62 105.984 171.717 105.394C172.496 105.32 173.275 105.219 174.053 105.097C178.107 104.789 181.91 103.823 185.457 102.336C189.004 100.849 192.306 98.8422 195.363 96.4476C204.974 89.0992 210.879 78.9527 217.461 68.5832C233.756 42.9434 268.192 41.3346 291.822 57.4916C294.905 59.5888 297.55 61.8029 300.105 64.4736C313.499 78.5386 308.821 99.1183 309.531 116.751C309.931 126.563 315.819 134.151 320.945 142.418C329.064 155.474 322.887 172.438 309.6 179.473C308.469 180.099 307.354 180.683 306.218 181.198C305.082 181.714 303.925 182.16 302.714 182.505C299.807 183.407 296.777 183.869 293.635 183.407C282.845 181.485 272.694 179.914 262.224 181.671C261.013 181.942 259.855 182.303 258.735 182.744C250.942 185.791 244.968 192.725 239.336 198.858C237.517 200.892 235.602 202.867 233.602 204.746C231.601 206.626 229.516 208.42 227.35 210.104C220.8 215.164 213.557 219.714 205.913 222.963C203.363 224.046 200.771 224.981 198.136 225.761C171.098 233.285 134.913 226.499 123.674 197.196C121.786 192.354 120.57 187.782 119.594 182.616C117.513 170.877 117.044 159.769 117.673 148.332C117.876 144.844 118.244 141.812 118.788 139.349H118.799Z" fill="#F4F4F4"/>
<path d="M259.359 199.597C257.919 195.62 259.967 190.969 263.77 189.057C265.962 187.974 268.245 187.411 270.646 187.289C271.424 187.305 272.283 187.353 273.062 187.369C274.294 187.464 275.462 187.735 276.646 188.202C277.542 188.654 278.321 189.158 279.036 189.827C279.393 190.162 279.596 190.634 279.836 191.022C282.119 197.09 276.502 202.575 271.2 204.577C270.374 204.933 269.563 205.002 268.629 205.124C268.021 205.177 267.36 205.108 266.752 205.161C265.888 205.113 265.13 204.811 264.33 204.593C263.823 204.391 263.434 204.142 262.927 203.94C262.282 203.589 261.706 203.069 261.178 202.522C260.378 201.704 259.754 200.722 259.354 199.597H259.359Z" fill="#F4F4F4"/>
<path d="M255.903 205.144C256.97 207.231 256.17 209.928 254.218 211.239C253.087 211.988 251.876 212.455 250.564 212.689C250.137 212.737 249.657 212.769 249.231 212.816C248.548 212.848 247.887 212.785 247.204 212.609C246.681 212.424 246.217 212.201 245.78 211.882C245.561 211.723 245.417 211.478 245.257 211.282C243.577 208.107 246.281 204.703 249.055 203.238C249.487 202.983 249.924 202.893 250.425 202.76C250.756 202.691 251.124 202.681 251.455 202.606C251.93 202.574 252.372 202.686 252.826 202.75C253.119 202.824 253.348 202.935 253.642 203.01C254.021 203.158 254.373 203.403 254.703 203.668C255.199 204.061 255.61 204.56 255.909 205.149L255.903 205.144Z" fill="#F4F4F4"/>
<path d="M168.879 80.774C167.172 75.337 172.346 70.946 177.467 70.1443C178.512 69.9744 179.563 69.8045 180.662 69.7461C182.134 69.7461 183.569 69.8204 185.11 70.139C186.364 70.4363 187.495 70.7868 188.647 71.339C189.372 71.7266 190.188 72.1407 190.85 72.6982C191.207 73.0327 191.559 73.3672 191.916 73.707C194.647 76.4414 195.063 80.8006 192.978 84.0712C189.02 90.3099 180.603 91.2763 174.576 87.7242C173.541 87.1189 172.629 86.4658 171.781 85.6428C171.461 85.2234 171.103 84.8889 170.826 84.5332C169.909 83.3969 169.236 82.1226 168.879 80.774Z" fill="#F4F4F4"/>
<path d="M140.966 149.347C151.32 149.347 159.747 140.958 159.747 130.652C159.747 120.346 151.32 111.957 140.966 111.957C140.396 111.957 139.825 111.983 139.249 112.037C137.067 101.593 127.082 93.8779 115.449 93.8779C104.189 93.8779 94.481 101.025 91.8833 111.038C91.7606 111.038 91.638 111.033 91.5099 111.033C85.7813 111.033 81.1247 115.674 81.1247 121.371C81.1247 121.705 81.1407 122.045 81.1727 122.38C74.0572 122.778 68.3926 128.666 68.3926 135.85C68.3926 143.288 74.4733 149.341 81.9462 149.341H140.972L140.966 149.347Z" fill="#E0E0E0"/>
<path d="M115.443 95.2633C127.06 95.2633 136.64 103.244 138.107 113.576C139.035 113.422 139.99 113.337 140.961 113.337C150.567 113.337 158.355 121.089 158.355 130.651C158.355 140.214 150.567 147.966 140.961 147.966C133.13 147.966 88.6559 147.966 81.9351 147.966C75.2143 147.966 69.7683 142.545 69.7683 135.855C69.7683 129.165 75.2143 123.744 81.9351 123.744C82.2391 123.744 82.5325 123.76 82.8312 123.781C82.6178 123.016 82.5005 122.209 82.5005 121.381C82.5005 116.432 86.5329 112.424 91.4989 112.424C91.9949 112.424 92.4803 112.466 92.9497 112.541C94.8859 102.718 104.215 95.2686 115.438 95.2686M115.438 92.5077C103.927 92.5077 93.9525 99.6012 90.8214 109.684C84.7194 110.029 79.8495 115.02 79.7322 121.153C72.542 122.209 67 128.4 67 135.855C67 144.053 73.7048 150.727 81.9404 150.727H140.966C152.087 150.727 161.134 141.722 161.134 130.651C161.134 119.581 152.087 110.576 140.966 110.576C140.753 110.576 140.539 110.576 140.326 110.587C137.536 100.111 127.3 92.4971 115.448 92.4971L115.438 92.5077Z" fill="#E0E0E0"/>
<path d="M102.658 237.469C102.706 236.752 102.754 236.046 102.813 235.351" stroke="#182D38" stroke-width="2" stroke-linecap="round" stroke-linejoin="round"/>
<path d="M103.256 231.114C107.806 194.749 129.563 185.606 139.169 183.62C140.194 183.407 140.514 183.429 151.896 181.618C170.096 178.724 179.19 177.28 182.209 176.452C189.389 174.477 199.742 169.629 210.746 156.138" stroke="#182D38" stroke-width="2" stroke-linecap="round" stroke-linejoin="round" stroke-dasharray="4 4"/>
<path d="M212.062 154.476C212.489 153.924 212.921 153.361 213.353 152.782" stroke="#182D38" stroke-width="2" stroke-linecap="round" stroke-linejoin="round"/>
<path d="M349.187 154.534C356.793 154.534 362.981 148.375 362.981 140.804C362.981 133.232 356.793 127.073 349.187 127.073C348.771 127.073 348.35 127.094 347.923 127.132C346.323 119.459 338.988 113.794 330.443 113.794C322.171 113.794 315.044 119.04 313.135 126.399C313.044 126.399 312.953 126.399 312.863 126.399C308.654 126.399 305.235 129.808 305.235 133.991C305.235 134.241 305.246 134.485 305.273 134.729C300.045 135.021 295.885 139.349 295.885 144.621C295.885 150.085 300.349 154.529 305.838 154.529H349.192L349.187 154.534Z" fill="#E0E0E0"/>
<path d="M330.444 114.808C338.973 114.808 346.013 120.67 347.091 128.257C347.774 128.146 348.472 128.082 349.187 128.082C356.244 128.082 361.962 133.774 361.962 140.799C361.962 147.823 356.244 153.515 349.187 153.515C343.437 153.515 310.772 153.515 305.833 153.515C300.894 153.515 296.898 149.533 296.898 144.621C296.898 139.71 300.899 135.723 305.833 135.723C306.057 135.723 306.275 135.733 306.489 135.749C306.334 135.186 306.249 134.597 306.249 133.986C306.249 130.349 309.209 127.408 312.858 127.408C313.22 127.408 313.578 127.44 313.924 127.493C315.349 120.277 322.197 114.803 330.438 114.803M330.438 112.775C321.984 112.775 314.655 117.983 312.356 125.39C307.876 125.645 304.297 129.314 304.211 133.811C298.925 134.592 294.855 139.142 294.855 144.616C294.855 150.637 299.779 155.538 305.827 155.538H349.182C357.348 155.538 363.994 148.922 363.994 140.793C363.994 132.664 357.348 126.049 349.182 126.049C349.027 126.049 348.867 126.049 348.712 126.054C346.664 118.36 339.143 112.77 330.438 112.77V112.775Z" fill="#E0E0E0"/>
<path d="M250.468 180.503C250.436 179.956 250.404 179.404 250.361 178.714C251.62 179.266 251.668 179.611 250.879 180.482C250.745 180.487 250.607 180.498 250.473 180.503H250.468Z" fill="#022E41"/>
<path d="M277.67 80.6574C277.419 81.937 277.163 83.2219 276.907 84.5015C272.811 105.166 268.714 125.836 264.591 146.618C251.277 142.556 238.097 138.531 224.709 134.448C226.848 132.261 228.987 130.073 231.12 127.891C246.616 112.042 262.015 96.294 277.408 80.5459C277.494 80.5831 277.579 80.6202 277.664 80.6574H277.67Z" fill="white"/>
<path d="M269.029 83.0892C268.811 83.2751 268.597 83.4715 268.363 83.6361C255.577 92.9119 242.786 102.188 229.995 111.469C223.813 115.955 217.626 120.437 211.449 124.928C209.966 126.006 208.489 127.084 207.006 128.162C206.403 128.603 205.902 128.735 205.155 128.502C198.61 126.473 192.055 124.488 185.5 122.486C185.228 122.406 184.961 122.305 184.385 122.114C212.729 108.984 240.823 95.9648 268.912 82.9512C268.928 82.9724 268.944 82.9936 268.965 83.0202C268.981 83.0414 268.997 83.068 269.019 83.0892H269.029Z" fill="white"/>
<path d="M268.939 86.1426C267.264 87.8629 265.584 89.5938 263.904 91.314C257.578 97.7917 251.257 104.269 244.92 110.747C237.501 118.329 230.065 125.906 222.667 133.509C222.123 134.072 221.686 134.815 221.429 135.558C220.085 139.413 218.821 143.294 217.434 147.446C214.117 141.574 210.954 135.978 207.727 130.27C228.118 115.478 248.451 100.728 268.79 85.9727C268.838 86.0311 268.886 86.0895 268.939 86.1479V86.1426Z" fill="#E1F6FF"/>
<path d="M227.014 137.374C224.881 139.907 222.875 142.285 220.864 144.664C220.795 144.632 220.726 144.595 220.656 144.558C221.563 141.823 222.475 139.089 223.409 136.28C224.63 136.652 225.74 136.986 227.009 137.374H227.014Z" fill="#E1F6FF"/>
<path d="M198.653 120.224L211.449 124.928C209.966 126.006 208.489 127.084 207.006 128.162C206.403 128.603 205.902 128.735 205.155 128.502C198.61 126.473 192.055 124.488 185.5 122.486C185.228 122.406 184.961 122.305 184.385 122.114C212.729 108.984 240.823 95.9648 268.912 82.9512C268.928 82.9724 268.944 82.9936 268.965 83.0202L198.642 120.224H198.653Z" fill="#E1F6FF"/>
<path d="M279.248 75.9003C278.939 75.9587 278.646 76.1127 278.352 76.2507C250.397 89.1954 222.442 102.145 194.492 115.095C190.091 117.134 185.68 119.152 181.296 121.238C180.869 121.44 180.405 122.03 180.389 122.46C180.378 122.783 181.04 123.145 181.418 123.468C181.514 123.553 181.685 123.553 181.824 123.596C189.398 125.906 196.972 128.231 204.557 130.519C205.298 130.742 205.768 131.109 206.146 131.778C209.555 137.863 212.995 143.931 216.43 150.005C217.257 151.466 217.897 151.513 218.985 150.223C222.18 146.437 225.391 142.662 228.554 138.855C229.066 138.24 229.499 138.112 230.277 138.362C234.459 139.689 238.662 140.942 242.865 142.227C250.066 144.425 257.267 146.623 264.468 148.816C265.913 149.257 266.308 149.018 266.602 147.531C266.831 146.384 267.055 145.232 267.279 144.08C271.183 124.382 275.083 104.683 278.987 84.9796C279.515 82.3301 280.032 79.6807 280.544 77.079C280.566 76.2295 280.043 75.7516 279.243 75.9056L279.248 75.9003ZM277.669 80.6576C277.419 81.9372 277.163 83.2221 276.907 84.5017C272.81 105.166 268.714 125.836 264.591 146.618C251.277 142.556 238.097 138.532 224.709 134.449C226.848 132.261 228.986 130.073 231.12 127.891C246.615 112.042 262.014 96.2942 277.408 80.5461C277.493 80.5833 277.579 80.6205 277.664 80.6576H277.669ZM205.16 128.502C198.615 126.474 192.059 124.488 185.504 122.486C185.232 122.407 184.965 122.306 184.389 122.114C212.734 108.984 240.828 95.965 268.916 82.9513C268.932 82.9726 268.948 82.9938 268.97 83.0204C268.986 83.0416 269.002 83.0682 269.023 83.0894C268.804 83.2752 268.591 83.4717 268.356 83.6363C255.571 92.912 242.78 102.188 229.989 111.469C223.807 115.955 217.62 120.437 211.443 124.929C209.96 126.006 208.483 127.084 207 128.162C206.397 128.603 205.896 128.735 205.149 128.502H205.16ZM217.433 147.441C214.115 141.569 210.952 135.972 207.725 130.265C228.117 115.472 248.45 100.722 268.788 85.9672C268.836 86.0256 268.884 86.084 268.938 86.1424C267.263 87.8627 265.583 89.5936 263.903 91.3139C257.576 97.7915 251.256 104.269 244.919 110.747C237.499 118.329 230.064 125.905 222.666 133.509C222.122 134.072 221.684 134.815 221.428 135.558C220.084 139.413 218.82 143.294 217.433 147.446V147.441ZM220.858 144.664C220.788 144.632 220.719 144.595 220.649 144.558C221.556 141.823 222.468 139.089 223.402 136.28C224.623 136.652 225.733 136.987 227.002 137.374C224.869 139.907 222.863 142.285 220.852 144.664H220.858Z" fill="#022E41"/>
<path d="M276.907 84.5014C272.811 105.166 268.714 125.836 264.591 146.618C251.277 142.556 238.097 138.531 224.709 134.448C226.848 132.261 228.987 130.073 231.12 127.891L260.393 135.606L276.907 84.4961V84.5014Z" fill="#E1F6FF"/>
</g>
<defs>
<clipPath id="clip0_901_1350">
<rect width="297" height="191" fill="white" transform="translate(67 47)"/>
</clipPath>
</defs>
</svg>
