<svg class="svg-icon" style="width: 1em;height: 1em;vertical-align: middle;fill: currentColor;overflow: hidden;" viewBox="0 0 1024 1024" version="1.1" xmlns="http://www.w3.org/2000/svg"><path d="M795.097316 453.530738c-56.061724 0.622364-106.519893-16.195129-153.860552-47.341796V624.833422c0 97.174187-66.030933 180.647253-160.091022 202.449351-128.318578 29.27616-236.705564-63.538062-250.410098-174.415644-14.326898-110.879858 56.684089-208.05632 165.073352-229.858418 21.177458-4.359964 52.324124-4.359964 69.766257-0.622364v117.109191c-4.984604-1.247004-9.969209-2.490596-14.951537-3.11296-42.358329-7.4752-83.470791 13.703396-100.29056 52.324124-16.817493 38.620729-5.606969 83.469653 28.656071 109.632854 28.653796 22.424462 60.421689 25.536284 92.813084 10.587022 32.393671-14.32576 49.835804-40.487822 53.571129-75.994454 0.62464-4.982329 0.62464-10.589298 0.62464-16.193991V196.265529c0-11.834027 0-11.834027 11.832889-11.834027h92.81536c6.85056 0 9.344569 1.244729 9.966933 9.343431 4.982329 72.257991 59.800462 133.926684 130.189085 143.271254 7.4752 1.245867 15.57504 1.868231 24.296106 2.489457v113.995094z"  /></svg>